<?xml version="1.0" encoding="UTF-8"?>
<!DOCTYPE svg PUBLIC "-//W3C//DTD SVG 1.1//EN" "http://www.w3.org/Graphics/SVG/1.1/DTD/svg11.dtd">
<svg version="1.1" xmlns="http://www.w3.org/2000/svg" xmlns:xlink="http://www.w3.org/1999/xlink" x="0" y="0" width="660" height="400" viewBox="0, 0, 660, 400">
  <g id="Image">
    <path d="M0,0 L660,0 L660,400 L0,400 L0,0 z" fill="#FAF8F5"/>
    <path d="M309.651,36.611 C318.526,52.294 318.403,71.511 309.328,87.08 C300.253,102.648 283.591,112.225 265.571,112.231 L214.904,112.231 C186.922,112.231 164.237,89.546 164.237,61.564 C164.237,33.582 186.922,10.897 214.904,10.897 L227.571,10.897 C234.566,10.897 240.237,5.226 240.237,-1.769 C240.237,-8.765 234.566,-14.436 227.571,-14.436 L214.904,-14.436 C172.93,-14.436 138.904,19.59 138.904,61.564 C138.904,103.538 172.93,137.564 214.904,137.564 L265.571,137.564 C292.676,137.575 317.735,123.148 331.338,99.703 C344.94,76.258 345.026,47.343 331.564,23.817 L331.437,23.564 C327.835,17.548 320.037,15.591 314.021,19.194 C308.004,22.797 306.048,30.594 309.651,36.611 z M120.157,10.517 C111.282,-5.166 111.405,-24.383 120.48,-39.952 C129.556,-55.52 146.217,-65.097 164.237,-65.103 L214.904,-65.103 C242.886,-65.103 265.571,-42.418 265.571,-14.436 C265.571,13.546 242.886,36.231 214.904,36.231 L202.237,36.231 C195.242,36.231 189.571,41.902 189.571,48.897 C189.571,55.893 195.242,61.564 202.237,61.564 L214.904,61.564 C256.878,61.564 290.904,27.538 290.904,-14.436 C290.904,-56.41 256.878,-90.436 214.904,-90.436 L164.237,-90.436 C137.132,-90.447 112.073,-76.02 98.47,-52.575 C84.868,-29.13 84.782,-0.215 98.244,23.311 L98.371,23.564 C101.973,29.58 109.771,31.537 115.787,27.934 C121.804,24.331 123.76,16.534 120.157,10.517 z" fill="#F4F3EF"/>
    <path d="M671.05,36.611 C679.925,52.294 679.802,71.511 670.727,87.08 C661.652,102.648 644.991,112.225 626.97,112.231 L576.304,112.231 C548.321,112.231 525.637,89.546 525.637,61.564 C525.637,33.582 548.321,10.897 576.304,10.897 L588.97,10.897 C595.966,10.897 601.637,5.226 601.637,-1.769 C601.637,-8.765 595.966,-14.436 588.97,-14.436 L576.304,-14.436 C534.33,-14.436 500.304,19.59 500.304,61.564 C500.304,103.538 534.33,137.564 576.304,137.564 L626.97,137.564 C654.076,137.575 679.135,123.148 692.737,99.703 C706.34,76.258 706.426,47.343 692.964,23.817 L692.837,23.564 C689.234,17.548 681.436,15.591 675.42,19.194 C669.404,22.797 667.448,30.594 671.05,36.611 z M481.557,10.517 C472.682,-5.166 472.805,-24.383 481.88,-39.952 C490.955,-55.52 507.616,-65.097 525.637,-65.103 L576.304,-65.103 C604.286,-65.103 626.97,-42.418 626.97,-14.436 C626.97,13.546 604.286,36.231 576.304,36.231 L563.637,36.231 C556.641,36.231 550.97,41.902 550.97,48.897 C550.97,55.893 556.641,61.564 563.637,61.564 L576.304,61.564 C618.277,61.564 652.304,27.538 652.304,-14.436 C652.304,-56.41 618.277,-90.436 576.304,-90.436 L525.637,-90.436 C498.532,-90.447 473.472,-76.02 459.87,-52.575 C446.267,-29.13 446.181,-0.215 459.644,23.311 L459.77,23.564 C463.373,29.58 471.171,31.537 477.187,27.934 C483.203,24.331 485.16,16.534 481.557,10.517 z" fill="#F4F3EF"/>
    <path d="M516.05,361.472 C524.925,377.155 524.802,396.372 515.727,411.941 C506.652,427.509 489.991,437.086 471.97,437.092 L421.304,437.092 C393.321,437.092 370.637,414.407 370.637,386.425 C370.637,358.443 393.321,335.758 421.304,335.758 L433.97,335.758 C440.966,335.758 446.637,330.087 446.637,323.092 C446.637,316.096 440.966,310.425 433.97,310.425 L421.304,310.425 C379.33,310.425 345.304,344.451 345.304,386.425 C345.304,428.399 379.33,462.425 421.304,462.425 L471.97,462.425 C499.076,462.436 524.135,448.009 537.737,424.564 C551.34,401.119 551.426,372.204 537.964,348.678 L537.837,348.425 C534.234,342.409 526.436,340.452 520.42,344.055 C514.404,347.658 512.448,355.455 516.05,361.472 z M326.557,335.378 C317.682,319.695 317.805,300.478 326.88,284.909 C335.955,269.341 352.616,259.764 370.637,259.758 L421.304,259.758 C449.286,259.758 471.97,282.443 471.97,310.425 C471.97,338.407 449.286,361.092 421.304,361.092 L408.637,361.092 C401.641,361.092 395.97,366.763 395.97,373.758 C395.97,380.754 401.641,386.425 408.637,386.425 L421.304,386.425 C463.277,386.425 497.304,352.399 497.304,310.425 C497.304,268.451 463.277,234.425 421.304,234.425 L370.637,234.425 C343.532,234.414 318.472,248.841 304.87,272.286 C291.267,295.731 291.181,324.646 304.644,348.172 L304.77,348.425 C308.373,354.441 316.171,356.398 322.187,352.795 C328.203,349.192 330.16,341.395 326.557,335.378 z" fill="#F4F3EF"/>
    <path d="M139.547,361.472 C148.422,377.155 148.299,396.372 139.224,411.941 C130.149,427.509 113.488,437.086 95.467,437.092 L44.8,437.092 C16.818,437.092 -5.866,414.407 -5.866,386.425 C-5.866,358.443 16.818,335.758 44.8,335.758 L57.467,335.758 C64.463,335.758 70.134,330.087 70.134,323.092 C70.134,316.096 64.463,310.425 57.467,310.425 L44.8,310.425 C2.827,310.425 -31.199,344.451 -31.199,386.425 C-31.199,428.399 2.827,462.425 44.8,462.425 L95.467,462.425 C122.572,462.436 147.632,448.009 161.234,424.564 C174.837,401.119 174.923,372.204 161.46,348.678 L161.334,348.425 C157.731,342.409 149.933,340.452 143.917,344.055 C137.901,347.658 135.944,355.455 139.547,361.472 z M-49.946,335.378 C-58.821,319.695 -58.698,300.478 -49.623,284.909 C-40.548,269.341 -23.887,259.764 -5.866,259.758 L44.8,259.758 C72.783,259.758 95.467,282.443 95.467,310.425 C95.467,338.407 72.783,361.092 44.8,361.092 L32.134,361.092 C25.138,361.092 19.467,366.763 19.467,373.758 C19.467,380.754 25.138,386.425 32.134,386.425 L44.8,386.425 C86.774,386.425 120.8,352.399 120.8,310.425 C120.8,268.451 86.774,234.425 44.8,234.425 L-5.866,234.425 C-32.971,234.414 -58.031,248.841 -71.633,272.286 C-85.236,295.731 -85.322,324.646 -71.859,348.172 L-71.733,348.425 C-68.13,354.441 -60.332,356.398 -54.316,352.795 C-48.3,349.192 -46.343,341.395 -49.946,335.378 z" fill="#F4F3EF"/>
    <text transform="matrix(1, 0, 0, 1, 331.555, 173.564)">
      <tspan x="-92.54" y="19" font-family="Karla-Regular" font-size="60" fill="#204959">dragTo</tspan>
    </text>
    <text transform="matrix(1, 0, 0, 1, 33.958, 174.925)">
      <tspan x="-18.3" y="32.5" font-family="Karla-Regular" font-size="100" fill="#204959">(</tspan>
    </text>
    <text transform="matrix(1, 0, 0, 1, 448.196, 174.925)">
      <tspan x="-18.3" y="32.5" font-family="Karla-Regular" font-size="100" fill="#204959">(</tspan>
    </text>
    <text transform="matrix(1, 0, 0, 1, 214.904, 174.925)">
      <tspan x="-18.3" y="32.5" font-family="Karla-Regular" font-size="100" fill="#204959">)</tspan>
    </text>
    <text transform="matrix(1, 0, 0, 1, 630.154, 174.925)">
      <tspan x="-18.3" y="32.5" font-family="Karla-Regular" font-size="100" fill="#204959">)</tspan>
    </text>
  </g>
</svg>
